<?xml version="1.0" encoding="UTF-8" standalone="no"?>
<svg xmlns:dc="http://purl.org/dc/elements/1.1/" xmlns:cc="http://creativecommons.org/ns#" xmlns:rdf="http://www.w3.org/1999/02/22-rdf-syntax-ns#" xmlns:svg="http://www.w3.org/2000/svg" xmlns="http://www.w3.org/2000/svg" xmlns:sodipodi="http://sodipodi.sourceforge.net/DTD/sodipodi-0.dtd" xmlns:inkscape="http://www.inkscape.org/namespaces/inkscape" width="32" height="32" viewBox="0 0 32 32.000001" id="svg2" version="1.1" inkscape:version="0.91 r13725" sodipodi:docname="bell-toll-alarm-sound.svg">
  <defs id="defs4"/>
  <sodipodi:namedview id="base" pagecolor="#ffffff" bordercolor="#666666" borderopacity="1.0" inkscape:pageopacity="0.0" inkscape:pageshadow="2" inkscape:zoom="11.2" inkscape:cx="-11.147938" inkscape:cy="20.477867" inkscape:document-units="px" inkscape:current-layer="layer1" showgrid="true" units="px" inkscape:window-width="1366" inkscape:window-height="716" inkscape:window-x="-8" inkscape:window-y="-8" inkscape:window-maximized="1">
    <inkscape:grid type="xygrid" id="grid4749"/>
  </sodipodi:namedview>
  
  <g inkscape:label="Layer 1" inkscape:groupmode="layer" id="layer1" transform="translate(0,-1020.3622)">
    <path inkscape:connector-curvature="0" style="opacity:1;fill:#3b3c3d;fill-opacity:1;stroke:none;stroke-width:1;stroke-linecap:round;stroke-linejoin:round;stroke-miterlimit:4;stroke-dasharray:none;stroke-opacity:1" d="m 15.91816,1024.0738 a 1.5000019,1.4894132 0 0 0 -0.80079,0.2832 1.5000019,1.4894132 0 0 0 -0.5996,1.4414 7.9921118,7.9919457 0 0 0 -6.50391,7.8399 l -0.008,4.584 a 9.9980453,9.9978375 0 0 1 -2.6875,6.8046 l -0.81836,0.877 23,0 -0.81055,-0.8691 A 10,9.9997922 0 0 1 24,1038.2125 l 0,-4.5586 a 8,7.9998338 0 0 0 -6.52149,-7.8555 1.5000019,1.4894132 0 0 0 -0.57617,-1.4258 1.5000019,1.4894132 0 0 0 -0.98437,-0.2988 z" id="path10771"/>
    <path inkscape:connector-curvature="0" style="opacity:1;fill:#3b3c3d;fill-opacity:1;stroke:none;stroke-width:1;stroke-linecap:round;stroke-linejoin:round;stroke-miterlimit:4;stroke-dasharray:none;stroke-opacity:1" d="m 13.28534,1046.9039 c 0.48923,1.0616 1.56315,1.7756 2.78321,1.748 1.17362,-0.027 2.18231,-0.731 2.65039,-1.748 z" id="path10773"/>
  </g>

	<metadata>
		<rdf:RDF xmlns:rdf="http://www.w3.org/1999/02/22-rdf-syntax-ns#" xmlns:rdfs="http://www.w3.org/2000/01/rdf-schema#" xmlns:dc="http://purl.org/dc/elements/1.1/">
			<rdf:Description about="https://iconscout.com/legal#licenses" dc:title="bell-toll-alarm-sound-marine" dc:description="bell-toll-alarm-sound-marine" dc:publisher="Iconscout" dc:date="2017-04-11" dc:format="image/svg+xml" dc:language="en">
				<dc:creator>
					<rdf:Bag>
						<rdf:li>Vignesh Oviyan</rdf:li>
					</rdf:Bag>
				</dc:creator>
			</rdf:Description>
		</rdf:RDF>
    </metadata></svg>
