<svg id="SvgjsSvg1001" width="288" height="288" xmlns="http://www.w3.org/2000/svg" version="1.1" xmlns:xlink="http://www.w3.org/1999/xlink" xmlns:svgjs="http://svgjs.com/svgjs"><defs id="SvgjsDefs1002"></defs><g id="SvgjsG1008" transform="matrix(0.9167,0,0,0.9167,11.995200000000011,11.995200000000011)"><svg xmlns="http://www.w3.org/2000/svg" width="288" height="288" viewBox="0 0 26 26"><g transform="translate(0 -1026.362)" fill="#000000" class="color000 svgShape"><circle cx="13" cy="1039.362" r="13" fill="#23b7d9" fill-rule="evenodd" class="color239fdb svgShape"></circle><path style="line-height:normal;text-indent:0;text-align:start;text-decoration-line:none;text-decoration-style:solid;text-decoration-color:#000;text-transform:none;block-progression:tb;isolation:auto;mix-blend-mode:normal" fill="#ffffff" d="m 8.9433594,2.015625 0,0.00195 C 7.6703725,1.920534 6.3633074,2.260413 5.2714844,3.0605469 3.1439823,4.6194376 2.4802142,7.4609463 3.625,9.8066406 L 3.603516,10.099609 2.0488285,13.285156 c -0.20764,0.430805 0.2527174,0.877972 0.6816407,0.66211 l 3.2363281,-1.638672 0.1503906,-0.01563 c 2.3522637,1.14704 5.2110711,0.508408 6.7929681,-1.591797 C 14.535746,8.5430606 14.320403,5.5179839 12.408203,3.6054688 11.452077,2.6494245 10.216346,2.1125625 8.9433594,2.015625 Z" color="#000" font-family="sans-serif" font-weight="400" overflow="visible" transform="translate(5 1031.36)" white-space="normal" class="colorfff svgShape"></path></g></svg></g></svg>