<?xml version="1.0"?>
<svg xmlns="http://www.w3.org/2000/svg" height="512px" viewBox="0 -1 512.00013 512" width="512px"><g><path d="m304.765625.425781c-8.570313 2.589844-16.410156 7.257813-22.898437 13.746094l-232.386719 232.382813c-6.617188 6.617187-11.191407 14.515624-13.734375 22.898437l224.179687-44.835937zm0 0" data-original="#000000" class="active-path" data-old_color="#000000" fill="#FFFFFF"/><path d="m495.867188 150.160156-135.988282-135.992187c-6.875-6.871094-15.269531-11.6875-24.4375-14.167969l-48.058594 240.304688c-1.1875 5.9375-5.828124 10.582031-11.765624 11.769531l-240.308594 48.0625c2.4375 8.953125 7.152344 17.414062 14.171875 24.433593l11.945312 11.945313-57.035156 57.035156c-5.855469 5.859375-5.855469 15.355469.003906 21.214844 2.929688 2.925781 6.765625 4.390625 10.605469 4.390625s7.675781-1.464844 10.605469-4.390625l57.035156-57.035156 24.226563 24.226562-102.476563 102.476563c-5.855469 5.855468-5.855469 15.355468.003906 21.210937 2.929688 2.929688 6.765625 4.394531 10.605469 4.394531s7.675781-1.464843 10.605469-4.394531l102.476562-102.476562 24.226563 24.230469-57.03125 57.035156c-5.859375 5.855468-5.859375 15.355468 0 21.210937 2.925781 2.929688 6.765625 4.394531 10.605468 4.394531 3.839844 0 7.675782-1.464843 10.605469-4.394531l57.035157-57.03125 11.945312 11.945313c10.390625 10.386718 24.242188 16.109375 39.007812 16.109375 14.765626 0 28.621094-5.722657 39.007813-16.109375l232.382813-232.382813c21.511718-21.511719 21.511718-56.507812 0-78.015625zm0 0" data-original="#000000" class="active-path" data-old_color="#000000" fill="#FFFFFF"/></g> </svg>
