<?xml version="1.0" encoding="UTF-8" standalone="no"?>
<svg xmlns="http://www.w3.org/2000/svg" viewBox="0 0 24 24"><title>Chat Bubble 12 </title><g id="Chat_Bubble_12" data-name="Chat Bubble 12"><path d="M21,1H3A2,2,0,0,0,1,3V22.5a.5.5,0,0,0,.85.35L6.71,18H21a2,2,0,0,0,2-2V3A2,2,0,0,0,21,1ZM12.5,13h-6a.5.5,0,0,1,0-1h6a.5.5,0,0,1,0,1Zm5-3H6.5a.5.5,0,0,1,0-1h11a.5.5,0,0,1,0,1Zm0-3H6.5a.5.5,0,0,1,0-1h11a.5.5,0,0,1,0,1Z" style="fill:#303c42"/></g>
	<metadata>
		<rdf:RDF xmlns:rdf="http://www.w3.org/1999/02/22-rdf-syntax-ns#" xmlns:rdfs="http://www.w3.org/2000/01/rdf-schema#" xmlns:dc="http://purl.org/dc/elements/1.1/">
			<rdf:Description about="https://iconscout.com/legal#licenses" dc:title="message; chat; bubble (13)" dc:description="message; chat; bubble (13)" dc:publisher="Iconscout" dc:date="2017-02-21" dc:format="image/svg+xml" dc:language="en">
				<dc:creator>
					<rdf:Bag>
						<rdf:li>Alpár - Etele Méder</rdf:li>
					</rdf:Bag>
				</dc:creator>
			</rdf:Description>
		</rdf:RDF>
    </metadata></svg>
