<svg id="Icons" height="512" viewBox="0 0 74 74" width="512" xmlns="http://www.w3.org/2000/svg"><path d="m67.163 37.049a1.188 1.188 0 0 1 -1.188-1.188v-14.9h-11.882a1.188 1.188 0 0 1 0-2.376h13.07a1.188 1.188 0 0 1 1.188 1.188v16.09a1.188 1.188 0 0 1 -1.188 1.186z"/><path d="m67.163 68.487h-55.251a10.111 10.111 0 0 1 -10.1-10.1v-45.151a1.188 1.188 0 0 1 2.376 0v45.152a7.732 7.732 0 0 0 7.724 7.724h54.063v-15.992a1.188 1.188 0 1 1 2.376 0v17.18a1.188 1.188 0 0 1 -1.188 1.187z"/><path d="m69.812 51.308h-15.531a8.317 8.317 0 1 1 0-16.634h15.531a2.379 2.379 0 0 1 2.376 2.376v11.882a2.379 2.379 0 0 1 -2.376 2.376zm0-14.258h-15.531a5.941 5.941 0 1 0 0 11.882h15.531z"/><path d="m54.093 20.959h-44.558a7.723 7.723 0 0 1 0-15.446h43.365a2.387 2.387 0 0 1 2.381 2.387v11.871a1.188 1.188 0 0 1 -1.188 1.188zm-44.558-13.07a5.347 5.347 0 1 0 0 10.694h43.365v-10.683z"/><path d="m54.093 14.424h-39.4a1.188 1.188 0 0 1 0-2.376h39.4a1.188 1.188 0 0 1 0 2.376z"/><path d="m55.328 46.658a3.971 3.971 0 1 1 3.972-3.97 3.975 3.975 0 0 1 -3.972 3.97zm0-5.845a1.874 1.874 0 1 0 1.872 1.875 1.876 1.876 0 0 0 -1.872-1.875z"/></svg>